<svg xmlns="http://www.w3.org/2000/svg" xmlns:xlink="http://www.w3.org/1999/xlink"><symbol id="icon-reset" viewBox="0 0 415 453">
  <g transform="translate(170.131977, 203.069169) scale(-1, 1) rotate(-141.000000) translate(-170.131977, -203.069169) translate(-56.868023, -52.930831)">
    <path d="M453.195,226.196 C453.195,101.471 351.725,0 227.001,0 C102.277,0 0.805,101.471 0.805,226.196 C0.805,233.605 6.812,239.612 14.221,239.612 C21.63,239.612 27.637,233.604 27.637,226.196 C27.637,116.266 117.071,26.833 227,26.833 C336.929,26.833 426.363,116.267 426.363,226.196 C426.363,336.124 336.929,425.558 227,425.558 L203.724,425.558 L237.006,388.303 C241.943,382.778 241.464,374.296 235.939,369.359 C230.414,364.422 221.931,364.902 216.995,370.427 L169.419,423.682 C161.631,432.4 161.631,445.548 169.419,454.266 L216.995,507.521 C219.646,510.489 223.317,511.999 227.005,511.999 C230.186,511.999 233.38,510.873 235.939,508.589 C241.465,503.652 241.943,495.17 237.006,489.645 L203.724,452.39 L227,452.39 C351.725,452.39 453.195,350.919 453.195,226.196 Z"/>
  </g>
</symbol></svg>